<svg width="20" height="15" viewBox="0 0 20 15" fill="none" xmlns="http://www.w3.org/2000/svg">
<path d="M11.6777 4.375H12.9277V5H11.6777V4.375Z" fill="#63A233"/>
<path d="M11.6777 5.625H12.9277V6.25H11.6777V5.625Z" fill="#63A233"/>
<path d="M16.834 1.875H15.0206V1.48438C15.0225 1.28106 14.9792 1.07987 14.8939 0.895296C14.8086 0.710723 14.6835 0.547365 14.5275 0.416992C14.2044 0.14418 13.7536 1.15946e-07 13.2238 1.15946e-07H7.52063C7.31043 -0.000104402 7.10629 0.0704555 6.94103 0.200343C6.77576 0.33023 6.65895 0.511903 6.60937 0.716172C6.5598 0.920441 6.58033 1.13545 6.66766 1.32664C6.755 1.51784 6.90408 1.67413 7.09094 1.77039L7.74477 3.29594C7.03942 3.81888 6.46644 4.49983 6.07177 5.28418C5.6771 6.06853 5.47172 6.93445 5.47211 7.8125H1.67773C1.59485 7.8125 1.51537 7.84542 1.45676 7.90403C1.39816 7.96263 1.36523 8.04212 1.36523 8.125V10.625C1.36361 11.5191 1.63739 12.392 2.14934 13.125H1.05273C0.969854 13.125 0.890369 13.1579 0.831763 13.2165C0.773158 13.2751 0.740234 13.3546 0.740234 13.4375V13.9062C0.740565 14.1962 0.855906 14.4742 1.06095 14.6793C1.266 14.8843 1.54401 14.9997 1.83398 15H9.64648C9.93646 14.9997 10.2145 14.8843 10.4195 14.6793C10.6246 14.4742 10.7399 14.1962 10.7402 13.9062V13.75H14.3956C14.4785 13.75 14.558 13.7171 14.6166 13.6585C14.6752 13.5999 14.7081 13.5204 14.7081 13.4375V12.3922C15.3824 11.9122 15.9425 11.2892 16.3482 10.5677C16.7539 9.84623 16.9952 9.04407 17.0551 8.21851C17.1149 7.39295 16.9917 6.56436 16.6943 5.79192C16.3968 5.01947 15.9325 4.32224 15.3345 3.75H16.5831C16.8569 3.75001 17.1194 3.85875 17.3129 4.05231C17.5065 4.24587 17.6152 4.50838 17.6152 4.78211V6.5625C17.6157 6.97676 17.7805 7.37392 18.0734 7.66684C18.3663 7.95977 18.7635 8.12453 19.1777 8.125C19.2606 8.125 19.3401 8.09208 19.3987 8.03347C19.4573 7.97487 19.4902 7.89538 19.4902 7.8125V4.53125C19.4894 3.82701 19.2093 3.15185 18.7114 2.65388C18.2134 2.15591 17.5382 1.8758 16.834 1.875ZM7.52063 1.25C7.43775 1.25 7.35826 1.21708 7.29965 1.15847C7.24105 1.09987 7.20813 1.02038 7.20813 0.9375C7.20813 0.85462 7.24105 0.775134 7.29965 0.716529C7.35826 0.657924 7.43775 0.625 7.52063 0.625H13.2238C13.8225 0.625 14.243 0.863594 14.3616 1.25H7.52063ZM14.3956 1.875V3.125H8.35172L7.81598 1.875H14.3956ZM1.99023 10.625V8.4375H10.7402C11.0333 8.43756 11.3224 8.50633 11.5841 8.6383C11.8458 8.77028 12.073 8.96177 12.2473 9.19742C12.4216 9.43306 12.5382 9.7063 12.5878 9.99518C12.6374 10.2841 12.6186 10.5806 12.5329 10.8609C12.4472 11.1412 12.2969 11.3975 12.0942 11.6092C11.8915 11.8209 11.642 11.9821 11.3657 12.08C11.0894 12.1778 10.794 12.2095 10.5032 12.1725C10.2125 12.1355 9.93441 12.0309 9.69141 11.867C9.6527 11.8408 9.60862 11.8236 9.5624 11.8167C9.51618 11.8098 9.46901 11.8134 9.42436 11.8272C9.3797 11.8409 9.3387 11.8645 9.30437 11.8962C9.27003 11.9279 9.24325 11.9669 9.22598 12.0103C9.06301 12.4198 8.82875 12.7972 8.53406 13.125H2.94625C2.32928 12.4386 1.98866 11.5479 1.99023 10.625ZM10.1152 13.9062C10.1151 14.0305 10.0657 14.1497 9.97779 14.2376C9.88991 14.3254 9.77076 14.3749 9.64648 14.375H1.83398C1.70971 14.3749 1.59056 14.3254 1.50268 14.2376C1.4148 14.1497 1.36537 14.0305 1.36523 13.9062V13.75H10.1152V13.9062ZM14.0831 13.125H9.33098C9.45471 12.9479 9.56505 12.7618 9.66105 12.5682C10.021 12.7402 10.4169 12.8236 10.8156 12.8113C11.2144 12.799 11.6044 12.6914 11.953 12.4976C11.9654 12.4991 11.9778 12.4999 11.9902 12.5H14.0831V13.125ZM15.9046 10.0728C15.5409 10.7887 15.0105 11.4068 14.3582 11.875H12.6897C13.046 11.4322 13.2402 10.8809 13.2402 10.3125C13.2402 9.74414 13.046 9.19284 12.6897 8.75H12.9277V8.125H11.9902V8.14883C11.6106 7.92821 11.1793 7.81216 10.7402 7.8125H6.09707C6.09725 7.39409 6.14989 6.97735 6.25375 6.57203C6.56625 6.60273 6.74293 6.70609 6.95687 6.83187C7.24023 6.99855 7.56145 7.18734 8.17773 7.18734C8.79402 7.18734 9.11523 6.9984 9.39867 6.83187C9.65449 6.68137 9.85656 6.56234 10.3027 6.56234C10.7488 6.56234 10.9509 6.68121 11.2067 6.83187C11.3558 6.92512 11.5135 7.00379 11.6777 7.0668V7.5H12.9277V7.13832C13.2413 7.07125 13.4538 6.94633 13.6484 6.83187C13.9043 6.68137 14.1064 6.56234 14.5526 6.56234C14.9988 6.56234 15.201 6.68121 15.4567 6.83187C15.6943 6.9716 15.9591 7.12648 16.4013 7.17313C16.5295 8.1676 16.3565 9.17766 15.9046 10.0728ZM15.9046 5.55227C16.0609 5.8609 16.1846 6.18501 16.2735 6.51934C16.0776 6.47168 15.9363 6.38887 15.7735 6.29313C15.4901 6.12645 15.1689 5.93766 14.5525 5.93766C13.9361 5.93766 13.615 6.1266 13.3315 6.29313C13.0756 6.44363 12.8735 6.56266 12.4273 6.56266C11.9811 6.56266 11.7792 6.44379 11.5234 6.29313C11.24 6.12645 10.9187 5.93766 10.3025 5.93766C9.68617 5.93766 9.36496 6.1266 9.08152 6.29313C8.8257 6.44363 8.62363 6.56266 8.1775 6.56266C7.73137 6.56266 7.52938 6.44379 7.27355 6.29313C7.05844 6.1666 6.82117 6.0275 6.44988 5.96766C6.50582 5.82675 6.56803 5.68827 6.63652 5.55223C6.99997 4.83637 7.53005 4.21829 8.18215 3.75H14.3584C15.0107 4.21831 15.5409 4.83639 15.9046 5.55227ZM18.8652 7.44645C18.6826 7.38161 18.5245 7.26185 18.4126 7.10359C18.3007 6.94533 18.2405 6.75632 18.2402 6.5625V4.78211C18.2402 4.34262 18.0656 3.92113 17.7549 3.61037C17.4441 3.2996 17.0226 3.12501 16.5831 3.125H15.0206V2.5H16.834C17.3725 2.50061 17.8888 2.71481 18.2696 3.09561C18.6504 3.47641 18.8646 3.99272 18.8652 4.53125V7.44645Z" fill="#63A233"/>
<path d="M13.5527 10.625H14.1777V11.25H13.5527V10.625Z" fill="#63A233"/>
<path d="M14.4902 9.6875H15.1152V10.3125H14.4902V9.6875Z" fill="#63A233"/>
<path d="M13.5527 8.4375H14.1777V9.0625H13.5527V8.4375Z" fill="#63A233"/>
<path d="M14.4902 7.5H15.1152V8.125H14.4902V7.5Z" fill="#63A233"/>
<path d="M10.7402 11.5625C10.9875 11.5625 11.2291 11.4892 11.4347 11.3519C11.6403 11.2145 11.8005 11.0193 11.8951 10.7909C11.9897 10.5625 12.0145 10.3111 11.9662 10.0686C11.918 9.82617 11.7989 9.60344 11.6241 9.42862C11.4493 9.2538 11.2266 9.13475 10.9841 9.08652C10.7416 9.03829 10.4903 9.06304 10.2619 9.15765C10.0335 9.25226 9.83825 9.41248 9.7009 9.61804C9.56355 9.8236 9.49023 10.0653 9.49023 10.3125C9.49061 10.6439 9.62242 10.9616 9.85676 11.196C10.0911 11.4303 10.4088 11.5621 10.7402 11.5625ZM10.7402 9.68751C10.8639 9.68751 10.9847 9.72416 11.0875 9.79284C11.1903 9.86151 11.2704 9.95913 11.3177 10.0733C11.365 10.1875 11.3774 10.3132 11.3532 10.4344C11.3291 10.5557 11.2696 10.667 11.1822 10.7545C11.0948 10.8419 10.9834 10.9014 10.8622 10.9255C10.7409 10.9496 10.6153 10.9372 10.5011 10.8899C10.3869 10.8426 10.2892 10.7625 10.2206 10.6597C10.1519 10.557 10.1152 10.4361 10.1152 10.3125C10.1154 10.1468 10.1813 9.98795 10.2985 9.87078C10.4157 9.75361 10.5745 9.6877 10.7402 9.68751Z" fill="#63A233"/>
<path d="M3.24023 10.9375C3.32311 10.9375 3.4026 10.9046 3.46121 10.846C3.51981 10.7874 3.55273 10.7079 3.55273 10.625V9.375C3.55273 9.29212 3.51981 9.21263 3.46121 9.15403C3.4026 9.09542 3.32311 9.0625 3.24023 9.0625C3.15735 9.0625 3.07787 9.09542 3.01926 9.15403C2.96066 9.21263 2.92773 9.29212 2.92773 9.375V10.625C2.92773 10.7079 2.96066 10.7874 3.01926 10.846C3.07787 10.9046 3.15735 10.9375 3.24023 10.9375Z" fill="#63A233"/>
<path d="M3.34152 11.5776C3.30246 11.5902 3.26627 11.6104 3.23501 11.637C3.20375 11.6636 3.17804 11.6961 3.15934 11.7326C3.14063 11.7691 3.12931 11.809 3.12601 11.8499C3.12271 11.8908 3.1275 11.932 3.14011 11.971C3.17667 12.0843 3.21851 12.1976 3.26449 12.3077C3.27993 12.3461 3.30284 12.381 3.33188 12.4104C3.36092 12.4399 3.39552 12.4633 3.43367 12.4793C3.47183 12.4953 3.51277 12.5035 3.55414 12.5035C3.5955 12.5036 3.63646 12.4954 3.67464 12.4795C3.71282 12.4636 3.74746 12.4402 3.77655 12.4108C3.80564 12.3814 3.82861 12.3465 3.84411 12.3082C3.85962 12.2698 3.86736 12.2288 3.86688 12.1874C3.8664 12.1461 3.85771 12.1052 3.84133 12.0672C3.80199 11.9728 3.76617 11.8758 3.73484 11.7789C3.70936 11.7001 3.65361 11.6346 3.57985 11.5968C3.5061 11.5591 3.42037 11.5522 3.34152 11.5776Z" fill="#63A233"/>
<path d="M3.08428 7.18745C3.16716 7.18745 3.24665 7.15453 3.30525 7.09592C3.36386 7.03732 3.39678 6.95783 3.39678 6.87495C3.39678 6.6362 3.44846 6.5328 3.52002 6.38968C3.64431 6.15392 3.70926 5.89142 3.70926 5.62491C3.70926 5.3584 3.64431 5.0959 3.52002 4.86014C3.50173 4.82334 3.47635 4.79051 3.44535 4.76353C3.41435 4.73656 3.37833 4.71596 3.33936 4.70292C3.30039 4.68988 3.25922 4.68465 3.21823 4.68754C3.17724 4.69043 3.13721 4.70138 3.10046 4.71976C3.0637 4.73813 3.03093 4.76358 3.00402 4.79464C2.97711 4.8257 2.95659 4.86177 2.94363 4.90077C2.93068 4.93977 2.92555 4.98094 2.92853 5.02193C2.93151 5.06292 2.94254 5.10292 2.961 5.13963C3.0326 5.28276 3.08428 5.38616 3.08428 5.62495C3.08428 5.86374 3.0326 5.96706 2.96104 6.11018C2.83178 6.34402 2.7665 6.60782 2.77178 6.87495C2.77178 6.95783 2.80471 7.03732 2.86331 7.09592C2.92192 7.15453 3.0014 7.18745 3.08428 7.18745Z" fill="#63A233"/>
<path d="M3.04507 4.36653C3.085 4.37607 3.12642 4.37765 3.16695 4.37116C3.20749 4.36468 3.24635 4.35026 3.2813 4.32873C3.31626 4.30721 3.34663 4.279 3.37067 4.24573C3.39471 4.21245 3.41195 4.17476 3.4214 4.13481C3.44409 4.04936 3.47722 3.96704 3.52003 3.88969C3.64925 3.65587 3.71448 3.3921 3.70913 3.125C3.70913 3.04212 3.67621 2.96263 3.6176 2.90403C3.559 2.84542 3.47951 2.8125 3.39663 2.8125C3.31375 2.8125 3.23427 2.84542 3.17566 2.90403C3.11706 2.96263 3.08413 3.04212 3.08413 3.125C3.08413 3.36367 3.03245 3.46707 2.96089 3.61016C2.89617 3.73027 2.84655 3.85791 2.81316 3.9902C2.80366 4.03014 2.80213 4.07155 2.80865 4.11208C2.81517 4.15261 2.82961 4.19146 2.85115 4.22641C2.87268 4.26136 2.9009 4.29172 2.93417 4.31576C2.96744 4.3398 3.00513 4.35705 3.04507 4.36653Z" fill="#63A233"/>
<path d="M4.64678 7.18738C4.72966 7.18738 4.80915 7.15446 4.86775 7.09586C4.92636 7.03725 4.95928 6.95776 4.95928 6.87489C4.95928 6.63614 5.01096 6.53274 5.08252 6.38961C5.11937 6.31551 5.12531 6.22981 5.09905 6.15133C5.07279 6.07285 5.01647 6.00799 4.94245 5.97098C4.86842 5.93397 4.78274 5.92783 4.7042 5.95392C4.62566 5.98 4.56067 6.03618 4.5235 6.11012C4.39425 6.34396 4.32899 6.60776 4.33428 6.87489C4.33428 6.95776 4.36721 7.03725 4.42581 7.09586C4.48442 7.15446 4.5639 7.18738 4.64678 7.18738Z" fill="#63A233"/>
<path d="M4.62187 5.3848C4.64104 5.46543 4.69146 5.53515 4.76203 5.57862C4.8326 5.62209 4.91755 5.63574 4.99819 5.61657C5.07882 5.59741 5.14854 5.54699 5.19201 5.47642C5.23548 5.40585 5.24913 5.3209 5.22996 5.24027C5.19657 5.10798 5.14695 4.98033 5.08223 4.86023C5.01067 4.71703 4.95899 4.61363 4.95899 4.375C4.95899 4.13636 5.01067 4.03293 5.08223 3.88984C5.21152 3.65599 5.2768 3.39216 5.27149 3.125C5.27149 3.04212 5.23856 2.96263 5.17996 2.90403C5.12135 2.84542 5.04187 2.8125 4.95899 2.8125C4.87611 2.8125 4.79662 2.84542 4.73801 2.90403C4.67941 2.96263 4.64648 3.04212 4.64648 3.125C4.64648 3.36367 4.5948 3.46707 4.52324 3.61015C4.39894 3.84591 4.33398 4.1084 4.33398 4.37492C4.33398 4.64143 4.39894 4.90393 4.52324 5.13968C4.56606 5.21703 4.59919 5.29935 4.62187 5.3848Z" fill="#63A233"/>
<path d="M1.52178 7.18748C1.60466 7.18748 1.68415 7.15456 1.74275 7.09595C1.80136 7.03735 1.83428 6.95786 1.83428 6.87498C1.83428 6.63627 1.88596 6.53283 1.95752 6.38974C2.02223 6.26966 2.07184 6.14204 2.10522 6.00978C2.12438 5.92914 2.11073 5.8442 2.06727 5.77362C2.0238 5.70305 1.95408 5.65264 1.87344 5.63347C1.7928 5.61431 1.70786 5.62796 1.63728 5.67142C1.56671 5.71489 1.5163 5.78461 1.49713 5.86525C1.47444 5.95066 1.44132 6.03296 1.39854 6.11029C1.26927 6.34409 1.20399 6.60787 1.20928 6.87498C1.20928 6.95786 1.24221 7.03735 1.30081 7.09595C1.35942 7.15456 1.4389 7.18748 1.52178 7.18748Z" fill="#63A233"/>
<path d="M1.95719 4.86008C1.88566 4.71699 1.83398 4.61359 1.83398 4.375C1.83398 4.13641 1.88566 4.03293 1.95723 3.88984C2.08651 3.65599 2.1518 3.39216 2.14648 3.125C2.14648 3.04212 2.11356 2.96263 2.05495 2.90403C1.99635 2.84542 1.91686 2.8125 1.83398 2.8125C1.7511 2.8125 1.67162 2.84542 1.61301 2.90403C1.55441 2.96263 1.52148 3.04212 1.52148 3.125C1.52148 3.36367 1.4698 3.46707 1.39824 3.61016C1.27394 3.84592 1.20898 4.10842 1.20898 4.37494C1.20898 4.64146 1.27394 4.90397 1.39824 5.13973L1.95719 4.86008Z" fill="#63A233"/>
</svg>
